<svg width="262" height="170" viewBox="0 0 262 170" fill="none" xmlns="http://www.w3.org/2000/svg">
<path d="M236.69 83.0592C243.546 75.4403 234.769 47.6759 213.876 44.362C206.59 43.2064 177.489 37.2595 141.701 29.7913C95.3857 20.1262 37.8714 7.91312 1.95027 0.23962C-1.27231 2.35132 -2.46997 9.4224 18.5201 20.8131C16.7665 26.4237 17.153 38.8563 32.7277 43.7025C38.3497 45.4518 45.5942 47.8945 54.0062 50.4279C54.62 56.7947 58.2388 70.5067 67.8037 74.4199C70.9912 75.724 77.7379 76.6022 86.2675 77.069C90.2547 83.4549 100.06 96.4967 107.385 97.5773C111.367 98.1648 119.668 97.4062 128.223 96.146C125.632 102.382 123.13 114.38 133.854 112.487C137.583 111.829 142.162 110.532 146.867 108.981C144.384 114.767 142.096 126.318 152.811 126.23C154.859 126.214 156.904 125.97 158.898 125.553C158.703 134.158 160.434 150.187 168.918 145.461C172.026 143.73 175.488 140.849 178.848 137.595C176.812 150.792 175.715 174.359 187.618 163.048C193.07 157.868 196.39 153.717 198.328 150.566C198.512 155.686 199.821 165.902 203.58 165.808C207.34 165.714 214.279 157.115 217.279 152.828C216.783 157.504 217.2 167.273 222.83 168.937C228.46 170.602 236.54 153.7 239.877 145.041L262 121.388C253.449 124.085 238.532 115.917 235.386 106.788C231.454 95.3767 229.835 90.678 236.69 83.0592Z" fill="white"/>
</svg>
