<svg width="1247" height="375" viewBox="0 0 1247 375" fill="none" xmlns="http://www.w3.org/2000/svg">
<path d="M237.69 150.172C244.546 142.553 235.769 114.788 214.876 111.475C207.59 110.319 178.489 104.372 142.701 96.9039C96.3857 87.2388 38.8714 75.0257 2.95027 67.3522C-0.27231 69.4639 -1.46997 76.5349 19.5201 87.9257C17.7665 93.5362 18.153 105.969 33.7277 110.815C39.3497 112.564 46.5942 115.007 55.0062 117.54C55.62 123.907 59.2388 137.619 68.8037 141.532C71.9912 142.837 78.7379 143.715 87.2675 144.182C91.2547 150.567 101.06 163.609 108.385 164.69C112.367 165.277 120.668 164.519 129.223 163.259C126.632 169.494 124.13 181.493 134.854 179.6C138.583 178.941 143.162 177.645 147.867 176.093C145.384 181.88 143.096 193.43 153.811 193.343C155.859 193.326 157.904 193.083 159.898 192.666C159.703 201.271 161.434 217.3 169.918 212.574C173.026 210.843 176.488 207.961 179.848 204.707C177.812 217.904 176.715 241.471 188.618 230.16C194.07 224.981 197.39 220.829 199.328 217.679C199.512 222.798 200.821 233.015 204.58 232.921C208.34 232.827 215.279 224.228 218.279 219.94C217.783 224.616 218.2 234.385 223.83 236.05C229.46 237.715 237.54 220.812 240.877 212.153L263 188.501C254.449 191.197 239.532 183.029 236.386 173.9C232.454 162.489 230.835 157.791 237.69 150.172Z" fill="white"/>
<path d="M1008.98 184.059C1002.12 176.44 1010.9 148.676 1031.79 145.362C1039.08 144.206 1068.18 138.26 1103.97 130.791C1150.28 121.126 1207.8 108.913 1243.72 101.24C1246.94 103.351 1248.14 110.422 1227.15 121.813C1228.9 127.424 1228.51 139.856 1212.94 144.702C1207.32 146.452 1200.07 148.895 1191.66 151.428C1191.05 157.795 1187.43 171.507 1177.86 175.42C1174.68 176.724 1167.93 177.602 1159.4 178.069C1155.41 184.455 1145.61 197.497 1138.28 198.577C1134.3 199.165 1126 198.406 1117.44 197.146C1120.03 203.382 1122.54 215.38 1111.81 213.487C1108.08 212.829 1103.5 211.532 1098.8 209.981C1101.28 215.767 1103.57 227.318 1092.86 227.23C1090.81 227.214 1088.76 226.97 1086.77 226.553C1086.96 235.158 1085.23 251.187 1076.75 246.461C1073.64 244.73 1070.18 241.849 1066.82 238.595C1068.85 251.792 1069.95 275.359 1058.05 264.048C1052.6 258.868 1049.28 254.717 1047.34 251.566C1047.15 256.686 1045.85 266.902 1042.09 266.808C1038.33 266.714 1031.39 258.115 1028.39 253.828C1028.88 258.504 1028.47 268.273 1022.84 269.937C1017.21 271.602 1009.13 254.7 1005.79 246.041L983.667 222.388C992.218 225.085 1007.13 216.917 1010.28 207.788C1014.21 196.377 1015.83 191.678 1008.98 184.059Z" fill="white"/>
<path d="M239.375 325V179.545H278.864V236.364H331.136V179.545H370.625V325H331.136V268.182H278.864V325H239.375ZM442.216 326.989C430.568 326.989 420.53 324.763 412.102 320.312C403.722 315.814 397.259 309.375 392.713 300.994C388.215 292.566 385.966 282.481 385.966 270.739C385.966 259.47 388.239 249.621 392.784 241.193C397.33 232.765 403.745 226.207 412.031 221.52C420.317 216.832 430.095 214.489 441.364 214.489C449.602 214.489 457.06 215.767 463.736 218.324C470.412 220.881 476.117 224.598 480.852 229.474C485.587 234.304 489.233 240.175 491.79 247.088C494.347 254.001 495.625 261.79 495.625 270.455V279.545H398.182V257.955H459.545C459.498 254.83 458.693 252.083 457.131 249.716C455.616 247.301 453.556 245.431 450.952 244.105C448.395 242.732 445.483 242.045 442.216 242.045C439.044 242.045 436.132 242.732 433.48 244.105C430.829 245.431 428.698 247.277 427.088 249.645C425.526 252.012 424.697 254.782 424.602 257.955V281.25C424.602 284.754 425.336 287.879 426.804 290.625C428.272 293.371 430.379 295.526 433.125 297.088C435.871 298.651 439.186 299.432 443.068 299.432C445.767 299.432 448.229 299.053 450.455 298.295C452.727 297.538 454.669 296.449 456.278 295.028C457.888 293.561 459.072 291.809 459.83 289.773H495.625C494.394 297.348 491.482 303.93 486.889 309.517C482.296 315.057 476.212 319.366 468.636 322.443C461.108 325.473 452.301 326.989 442.216 326.989ZM511.623 325V215.909H549.691V236.648H550.827C552.816 228.977 555.965 223.366 560.273 219.815C564.629 216.264 569.719 214.489 575.543 214.489C577.248 214.489 578.929 214.631 580.586 214.915C582.29 215.152 583.924 215.507 585.487 215.98V249.432C583.545 248.769 581.154 248.272 578.313 247.94C575.472 247.609 573.034 247.443 570.998 247.443C567.163 247.443 563.706 248.319 560.629 250.071C557.598 251.776 555.207 254.19 553.455 257.315C551.703 260.393 550.827 264.015 550.827 268.182V325H511.623ZM598.342 325V215.909H635.558V236.648H636.694C638.967 229.83 642.849 224.432 648.342 220.455C653.834 216.477 660.368 214.489 667.944 214.489C675.614 214.489 682.219 216.525 687.759 220.597C693.299 224.621 696.637 229.972 697.773 236.648H698.91C700.756 229.972 704.686 224.621 710.7 220.597C716.713 216.525 723.768 214.489 731.864 214.489C742.328 214.489 750.804 217.85 757.29 224.574C763.825 231.297 767.092 240.246 767.092 251.42V325H727.887V261.364C727.887 256.581 726.68 252.841 724.265 250.142C721.85 247.396 718.607 246.023 714.535 246.023C710.51 246.023 707.314 247.396 704.947 250.142C702.627 252.841 701.467 256.581 701.467 261.364V325H663.967V261.364C663.967 256.581 662.759 252.841 660.344 250.142C657.93 247.396 654.686 246.023 650.614 246.023C647.915 246.023 645.595 246.638 643.654 247.869C641.713 249.1 640.198 250.876 639.109 253.196C638.067 255.469 637.546 258.191 637.546 261.364V325H598.342ZM838.7 326.989C827.053 326.989 817.015 324.763 808.587 320.312C800.206 315.814 793.743 309.375 789.197 300.994C784.699 292.566 782.45 282.481 782.45 270.739C782.45 259.47 784.723 249.621 789.268 241.193C793.814 232.765 800.23 226.207 808.516 221.52C816.802 216.832 826.579 214.489 837.848 214.489C846.087 214.489 853.544 215.767 860.22 218.324C866.896 220.881 872.602 224.598 877.337 229.474C882.071 234.304 885.717 240.175 888.274 247.088C890.831 254.001 892.109 261.79 892.109 270.455V279.545H794.666V257.955H856.03C855.982 254.83 855.178 252.083 853.615 249.716C852.1 247.301 850.04 245.431 847.436 244.105C844.879 242.732 841.967 242.045 838.7 242.045C835.528 242.045 832.616 242.732 829.964 244.105C827.313 245.431 825.182 247.277 823.572 249.645C822.01 252.012 821.181 254.782 821.087 257.955V281.25C821.087 284.754 821.821 287.879 823.288 290.625C824.756 293.371 826.863 295.526 829.609 297.088C832.356 298.651 835.67 299.432 839.553 299.432C842.251 299.432 844.714 299.053 846.939 298.295C849.212 297.538 851.153 296.449 852.763 295.028C854.373 293.561 855.556 291.809 856.314 289.773H892.109C890.878 297.348 887.966 303.93 883.374 309.517C878.781 315.057 872.696 319.366 865.121 322.443C857.592 325.473 848.786 326.989 838.7 326.989ZM1007.82 251.42H971.744C971.554 249.195 970.773 247.277 969.4 245.668C968.027 244.058 966.251 242.827 964.073 241.974C961.942 241.075 959.575 240.625 956.971 240.625C953.609 240.625 950.721 241.241 948.306 242.472C945.891 243.703 944.708 245.455 944.755 247.727C944.708 249.337 945.394 250.829 946.815 252.202C948.282 253.575 951.1 254.64 955.266 255.398L977.425 259.375C988.6 261.411 996.909 264.844 1002.35 269.673C1007.85 274.455 1010.62 280.871 1010.66 288.92C1010.62 296.686 1008.3 303.433 1003.7 309.162C999.158 314.844 992.932 319.247 985.025 322.372C977.165 325.45 968.192 326.989 958.107 326.989C941.441 326.989 928.396 323.58 918.974 316.761C909.599 309.943 904.367 300.947 903.278 289.773H942.198C942.719 293.229 944.424 295.904 947.312 297.798C950.247 299.645 953.941 300.568 958.391 300.568C961.99 300.568 964.949 299.953 967.269 298.722C969.637 297.491 970.844 295.739 970.891 293.466C970.844 291.383 969.802 289.725 967.766 288.494C965.778 287.263 962.653 286.269 958.391 285.511L939.073 282.102C927.946 280.161 919.613 276.468 914.073 271.023C908.533 265.578 905.787 258.57 905.835 250C905.787 242.424 907.776 236.009 911.8 230.753C915.872 225.45 921.673 221.425 929.201 218.679C936.777 215.885 945.749 214.489 956.119 214.489C971.886 214.489 984.315 217.756 993.406 224.29C1002.54 230.824 1007.35 239.867 1007.82 251.42Z" fill="white"/>
</svg>
